<mxfile host="65bd71144e">
    <diagram id="9RdL9lpYLGoQygvbsbJ_" name="Page-1">
        <mxGraphModel dx="1139" dy="303" grid="1" gridSize="10" guides="1" tooltips="1" connect="1" arrows="1" fold="1" page="1" pageScale="1" pageWidth="800" pageHeight="800" math="0" shadow="0">
            <root>
                <mxCell id="0"/>
                <mxCell id="1" parent="0"/>
                <mxCell id="C_wRXDIU-4YFvV6KY-AZ-1" value="" style="line;strokeWidth=4;direction=south;html=1;perimeter=backbonePerimeter;points=[];outlineConnect=0;" parent="1" vertex="1">
                    <mxGeometry x="272" y="2" width="10" height="796" as="geometry"/>
                </mxCell>
                <mxCell id="C_wRXDIU-4YFvV6KY-AZ-2" value="" style="line;strokeWidth=4;direction=south;html=1;perimeter=backbonePerimeter;points=[];outlineConnect=0;" parent="1" vertex="1">
                    <mxGeometry x="554" y="2" width="10" height="796" as="geometry"/>
                </mxCell>
                <mxCell id="C_wRXDIU-4YFvV6KY-AZ-10" value="" style="edgeStyle=none;html=1;fontSize=17;" parent="1" source="C_wRXDIU-4YFvV6KY-AZ-3" target="C_wRXDIU-4YFvV6KY-AZ-9" edge="1">
                    <mxGeometry relative="1" as="geometry"/>
                </mxCell>
                <mxCell id="C_wRXDIU-4YFvV6KY-AZ-3" value="&lt;font style=&quot;font-size: 25px;&quot;&gt;JS &amp;amp; TS&lt;/font&gt;" style="shape=ext;double=1;rounded=1;whiteSpace=wrap;html=1;" parent="1" vertex="1">
                    <mxGeometry x="60" y="110" width="150" height="120" as="geometry"/>
                </mxCell>
                <mxCell id="C_wRXDIU-4YFvV6KY-AZ-4" value="Frontend" style="text;html=1;strokeColor=none;fillColor=none;align=center;verticalAlign=middle;whiteSpace=wrap;rounded=0;fontSize=25;" parent="1" vertex="1">
                    <mxGeometry x="105" y="30" width="60" height="30" as="geometry"/>
                </mxCell>
                <mxCell id="C_wRXDIU-4YFvV6KY-AZ-5" style="edgeStyle=none;html=1;exitX=1;exitY=0.5;exitDx=0;exitDy=0;fontSize=25;" parent="1" source="C_wRXDIU-4YFvV6KY-AZ-4" target="C_wRXDIU-4YFvV6KY-AZ-4" edge="1">
                    <mxGeometry relative="1" as="geometry"/>
                </mxCell>
                <mxCell id="C_wRXDIU-4YFvV6KY-AZ-8" value="" style="edgeStyle=none;html=1;fontSize=25;" parent="1" source="C_wRXDIU-4YFvV6KY-AZ-6" target="C_wRXDIU-4YFvV6KY-AZ-7" edge="1">
                    <mxGeometry relative="1" as="geometry"/>
                </mxCell>
                <mxCell id="C_wRXDIU-4YFvV6KY-AZ-6" value="React" style="rounded=1;whiteSpace=wrap;html=1;fontSize=25;" parent="1" vertex="1">
                    <mxGeometry x="82.5" y="360" width="105" height="60" as="geometry"/>
                </mxCell>
                <mxCell id="C_wRXDIU-4YFvV6KY-AZ-7" value="&lt;font style=&quot;font-size: 17px;&quot;&gt;React Query&lt;/font&gt;" style="ellipse;whiteSpace=wrap;html=1;fontSize=25;rounded=1;" parent="1" vertex="1">
                    <mxGeometry x="95" y="450" width="80" height="80" as="geometry"/>
                </mxCell>
                <mxCell id="C_wRXDIU-4YFvV6KY-AZ-9" value="&lt;font style=&quot;font-size: 17px;&quot;&gt;Taliwindcss&lt;/font&gt;" style="whiteSpace=wrap;html=1;rounded=1;" parent="1" vertex="1">
                    <mxGeometry x="75" y="270" width="120" height="60" as="geometry"/>
                </mxCell>
                <mxCell id="C_wRXDIU-4YFvV6KY-AZ-11" value="WebPack" style="ellipse;shape=doubleEllipse;whiteSpace=wrap;html=1;aspect=fixed;fontSize=17;" parent="1" vertex="1">
                    <mxGeometry x="87.5" y="590" width="95" height="95" as="geometry"/>
                </mxCell>
                <mxCell id="C_wRXDIU-4YFvV6KY-AZ-13" value="Backend" style="text;html=1;strokeColor=none;fillColor=none;align=center;verticalAlign=middle;whiteSpace=wrap;rounded=0;fontSize=25;" parent="1" vertex="1">
                    <mxGeometry x="650" y="30" width="60" height="30" as="geometry"/>
                </mxCell>
                <mxCell id="C_wRXDIU-4YFvV6KY-AZ-16" value="" style="edgeStyle=none;html=1;fontSize=22;" parent="1" source="C_wRXDIU-4YFvV6KY-AZ-14" target="C_wRXDIU-4YFvV6KY-AZ-15" edge="1">
                    <mxGeometry relative="1" as="geometry"/>
                </mxCell>
                <mxCell id="C_wRXDIU-4YFvV6KY-AZ-14" value="&lt;span style=&quot;font-size: 25px;&quot;&gt;MongoDB&lt;/span&gt;" style="shape=ext;double=1;rounded=1;whiteSpace=wrap;html=1;" parent="1" vertex="1">
                    <mxGeometry x="605" y="130" width="150" height="120" as="geometry"/>
                </mxCell>
                <mxCell id="C_wRXDIU-4YFvV6KY-AZ-15" value="Redis" style="whiteSpace=wrap;html=1;rounded=1;" parent="1" vertex="1">
                    <mxGeometry x="645" y="80" width="70" height="30" as="geometry"/>
                </mxCell>
                <mxCell id="C_wRXDIU-4YFvV6KY-AZ-17" value="&lt;span style=&quot;font-size: 25px;&quot;&gt;node.js &amp;amp;&lt;br&gt;Fastify &amp;amp; TS&lt;br&gt;&lt;/span&gt;" style="shape=ext;double=1;rounded=1;whiteSpace=wrap;html=1;" parent="1" vertex="1">
                    <mxGeometry x="605" y="270" width="150" height="120" as="geometry"/>
                </mxCell>
                <mxCell id="C_wRXDIU-4YFvV6KY-AZ-18" value="Nginx" style="rhombus;whiteSpace=wrap;html=1;fontSize=22;" parent="1" vertex="1">
                    <mxGeometry x="640" y="400" width="80" height="80" as="geometry"/>
                </mxCell>
                <mxCell id="C_wRXDIU-4YFvV6KY-AZ-21" value="" style="edgeStyle=none;html=1;fontSize=22;" parent="1" source="C_wRXDIU-4YFvV6KY-AZ-19" target="C_wRXDIU-4YFvV6KY-AZ-20" edge="1">
                    <mxGeometry relative="1" as="geometry"/>
                </mxCell>
                <mxCell id="C_wRXDIU-4YFvV6KY-AZ-22" value="" style="edgeStyle=none;html=1;fontSize=22;" parent="1" source="C_wRXDIU-4YFvV6KY-AZ-19" target="C_wRXDIU-4YFvV6KY-AZ-20" edge="1">
                    <mxGeometry relative="1" as="geometry"/>
                </mxCell>
                <mxCell id="C_wRXDIU-4YFvV6KY-AZ-19" value="docker" style="rounded=0;whiteSpace=wrap;html=1;fontSize=22;" parent="1" vertex="1">
                    <mxGeometry x="630" y="490" width="100" height="40" as="geometry"/>
                </mxCell>
                <mxCell id="C_wRXDIU-4YFvV6KY-AZ-20" value="Kubernetes" style="whiteSpace=wrap;html=1;fontSize=22;rounded=0;" parent="1" vertex="1">
                    <mxGeometry x="617.5" y="545" width="125" height="45" as="geometry"/>
                </mxCell>
                <mxCell id="C_wRXDIU-4YFvV6KY-AZ-23" value="terraform" style="rounded=0;whiteSpace=wrap;html=1;fontSize=22;" parent="1" vertex="1">
                    <mxGeometry x="620" y="600" width="120" height="60" as="geometry"/>
                </mxCell>
                <mxCell id="C_wRXDIU-4YFvV6KY-AZ-24" value="&lt;font style=&quot;font-size: 14px;&quot;&gt;github actions&lt;/font&gt;" style="triangle;whiteSpace=wrap;html=1;fontSize=12;align=left;" parent="1" vertex="1">
                    <mxGeometry x="620" y="685" width="130" height="90" as="geometry"/>
                </mxCell>
                <mxCell id="C_wRXDIU-4YFvV6KY-AZ-25" value="API" style="text;html=1;strokeColor=none;fillColor=none;align=center;verticalAlign=middle;whiteSpace=wrap;rounded=0;fontSize=25;" parent="1" vertex="1">
                    <mxGeometry x="390" y="30" width="60" height="30" as="geometry"/>
                </mxCell>
                <mxCell id="C_wRXDIU-4YFvV6KY-AZ-29" value="&lt;font style=&quot;font-size: 22px;&quot;&gt;Auth0&lt;/font&gt;" style="shape=trapezoid;perimeter=trapezoidPerimeter;whiteSpace=wrap;html=1;fixedSize=1;fontSize=14;" parent="1" vertex="1">
                    <mxGeometry x="345" y="230" width="150" height="80" as="geometry"/>
                </mxCell>
                <mxCell id="C_wRXDIU-4YFvV6KY-AZ-32" value="" style="edgeStyle=none;html=1;fontSize=22;" parent="1" source="C_wRXDIU-4YFvV6KY-AZ-30" target="C_wRXDIU-4YFvV6KY-AZ-29" edge="1">
                    <mxGeometry relative="1" as="geometry"/>
                </mxCell>
                <mxCell id="C_wRXDIU-4YFvV6KY-AZ-30" value="REST" style="rounded=0;whiteSpace=wrap;html=1;fontSize=22;" parent="1" vertex="1">
                    <mxGeometry x="340" y="110" width="155" height="90" as="geometry"/>
                </mxCell>
            </root>
        </mxGraphModel>
    </diagram>
</mxfile>